<svg xmlns="http://www.w3.org/2000/svg" width="24" height="24" viewBox="0 0 24 24"><g fill="none"><path d="M0 0h24v24h-24z"/><path fill="#3A3A5E" fill-rule="nonzero" d="M15.273 5.727c-1.324-1.324-2.9-1.977-4.773-1.977-1.872 0-3.45.653-4.773 1.977-1.324 1.324-1.977 2.9-1.977 4.773 0 1.872.653 3.45 1.977 4.773 1.324 1.324 2.9 1.977 4.773 1.977 1.872 0 3.45-.653 4.773-1.977 1.324-1.324 1.977-2.9 1.977-4.773 0-1.872-.653-3.45-1.977-4.773zm.509 11.115c-1.496 1.268-3.266 1.908-5.282 1.908-2.27 0-4.229-.811-5.834-2.416-1.605-1.605-2.416-3.564-2.416-5.834 0-2.27.811-4.229 2.416-5.834 1.605-1.605 3.564-2.416 5.834-2.416 2.27 0 4.229.811 5.834 2.416 1.605 1.605 2.416 3.564 2.416 5.834 0 2.016-.64 3.786-1.908 5.282l4.688 4.688a.75.75 0 1 1-1.06 1.06l-4.688-4.688z"/></g></svg>